<?xml version="1.0" encoding="UTF-8"?>
<!DOCTYPE svg PUBLIC "-//W3C//DTD SVG 1.1//EN" "http://www.w3.org/Graphics/SVG/1.1/DTD/svg11.dtd">
<svg version="1.1" xmlns="http://www.w3.org/2000/svg" xmlns:xlink="http://www.w3.org/1999/xlink" x="0" y="0" width="71.551" height="139.375" viewBox="0, 0, 71.551, 139.375">
  <g id="Layer_1" transform="translate(-21.543, -370.9)">
    <path d="M69.04,370.9 C82.325,370.9 93.094,377.756 93.094,386.213 C93.094,394.67 82.325,401.526 69.04,401.526 L21.852,401.526 L21.543,401.516 L21.543,370.91 L21.852,370.9 L69.04,370.9 z" fill="#FFFFFF"/>
    <path d="M69.04,424.9 C82.325,424.9 93.094,431.756 93.094,440.213 C93.094,448.67 82.325,455.526 69.04,455.526 L21.852,455.526 L21.543,455.516 L21.543,424.91 L21.852,424.9 L69.04,424.9 z" fill="#FFFFFF"/>
    <path d="M69.04,479.649 C82.325,479.649 93.094,486.505 93.094,494.962 C93.094,503.419 82.325,510.275 69.04,510.275 L21.852,510.275 L21.543,510.265 L21.543,479.659 L21.852,479.649 L69.04,479.649 z" fill="#FFFFFF"/>
  </g>
</svg>
