<?xml version="1.0" encoding="UTF-8"?>
<!DOCTYPE svg PUBLIC "-//W3C//DTD SVG 1.1//EN" "http://www.w3.org/Graphics/SVG/1.1/DTD/svg11.dtd">
<svg version="1.1" xmlns="http://www.w3.org/2000/svg" xmlns:xlink="http://www.w3.org/1999/xlink" x="0" y="0" width="20.852" height="21.143" viewBox="0, 0, 20.852, 21.143">
  <g id="Layer_1" transform="translate(-301.795, -374.977)">
    <path d="M320.292,374.987 C320.825,374.999 320.638,374.961 320.866,375.013 C321.725,377.184 321.194,378.778 321.022,379.184 C322.038,380.278 322.647,381.684 322.647,383.403 C322.647,389.544 318.85,390.809 315.304,391.184 C315.944,391.622 316.616,392.45 316.616,394.028 L316.616,396.12 L308.632,396.12 L308.632,394.653 C304.694,395.544 303.866,392.809 303.866,392.809 C303.241,391.2 302.335,390.778 302.335,390.778 C301.069,389.919 302.428,389.934 302.428,389.934 C303.819,390.028 304.553,391.356 304.553,391.356 C305.866,393.606 308.038,392.794 308.71,392.466 C308.913,391.481 309.679,391.278 309.929,391.2 C306.382,390.825 302.585,389.544 302.585,383.403 C302.585,381.684 303.194,380.278 304.194,379.184 C304.038,378.778 303.491,377.184 304.35,375.013 C304.35,375.013 305.678,374.591 308.679,376.622 C309.929,376.278 311.272,376.106 312.616,376.091 C313.944,376.106 315.288,376.278 316.554,376.622 C317.678,375.788 318.94,375.286 320.293,374.987 z" fill="#FFFFFF"/>
  </g>
</svg>
