<?xml version="1.0" encoding="UTF-8"?>
<!DOCTYPE svg PUBLIC "-//W3C//DTD SVG 1.1//EN" "http://www.w3.org/Graphics/SVG/1.1/DTD/svg11.dtd">
<svg version="1.1" xmlns="http://www.w3.org/2000/svg" xmlns:xlink="http://www.w3.org/1999/xlink" x="0" y="0" width="173.156" height="287.267" viewBox="0, 0, 173.156, 287.267">
  <g id="Layer_1" transform="translate(-33.333, -89.209)">
    <path d="M196.615,121.098 C197.812,121.056 206.489,156.756 206.489,170.959 C206.489,185.162 204.661,207.826 178.378,263.73 C152.094,319.634 175.696,352.875 184.814,362.243 C193.933,371.61 162.286,375.626 148.34,375.928 C138.868,376.162 129.399,376.579 119.911,376.453 L112.798,376.457 C96.217,376.072 103.322,376.259 91.483,375.928 C77.536,375.626 45.89,371.61 55.008,362.243 C64.127,352.875 87.728,319.634 61.445,263.73 C35.162,207.826 33.334,185.162 33.333,170.959 C33.334,156.756 42.011,121.056 43.208,121.098 C68.741,121.916 94.324,122.724 119.911,122.542 C145.499,122.724 171.082,121.916 196.615,121.098 z M183.515,141.778 C179.075,142.146 179.194,142.137 170.26,142.636 C153.532,143.57 136.719,143.989 119.911,143.993 C98.66,143.911 77.386,143.384 56.307,141.778 C55.194,149.476 54.097,157.187 53.984,164.915 C53.984,179.118 55.377,201.782 75.39,257.686 C95.404,313.591 77.433,346.831 70.489,356.199 C63.546,365.567 87.644,369.582 98.263,369.885 C107.279,370.215 101.869,370.028 114.495,370.413 L119.911,370.409 C127.136,370.535 134.347,370.118 141.559,369.885 C152.178,369.582 176.277,365.567 169.333,356.199 C162.39,346.831 144.418,313.591 164.432,257.686 C184.446,201.782 185.838,179.118 185.838,164.915 C185.733,157.188 184.627,149.476 183.515,141.778 z" fill="#FFFFFF"/>
    <path d="M120.215,89.209 C125.007,89.217 129.38,89.991 133.407,91.45 L135.813,91.683 C137.729,91.068 139.967,90.851 142.09,90.586 C143.501,90.462 144.938,90.464 146.362,90.403 C151.63,90.638 149.379,90.441 153.149,90.855 C159.282,91.723 165.215,93.517 168.967,96.532 C169.647,97.078 170.127,97.697 170.708,98.28 C178.85,100.641 184.428,103.169 191.353,106.625 C191.732,106.814 193.816,108.946 192.694,109.526 C176.758,110.84 162.697,110.383 121.118,110.383 C116.691,110.383 118.576,110.383 115.464,110.383 L115.464,110.277 L114.87,110.277 C113.337,110.395 113.455,110.405 111.167,110.368 C110.79,110.361 110.42,110.307 110.046,110.276 C88.699,110.141 67.222,110.589 46.004,108.964 C44.541,108.303 51.139,105.571 51.711,105.319 C56.191,103.342 60.987,101.601 65.938,100.045 C66.22,99.639 66.382,99.198 66.783,98.826 C71.335,94.616 83.103,93.739 90.834,93.624 L91.891,93.638 C95.7,92.923 99.579,92.302 103.534,91.919 C105.891,91.042 108.513,90.471 111.141,89.932 C115.028,89.358 112.7,89.647 118.174,89.21 L120.215,89.209 z" fill="#FFFFFF"/>
  </g>
</svg>
