<?xml version="1.0" encoding="UTF-8"?>
<!DOCTYPE svg PUBLIC "-//W3C//DTD SVG 1.1//EN" "http://www.w3.org/Graphics/SVG/1.1/DTD/svg11.dtd">
<svg version="1.1" xmlns="http://www.w3.org/2000/svg" xmlns:xlink="http://www.w3.org/1999/xlink" x="0" y="0" width="612" height="792" viewBox="0, 0, 612, 792">
  <g id="Layer_1">
    <path d="M-113.678,141.616" fill="#FFFFFF"/>
    <path d="M393.728,139.916 C395.215,139.822 406,218.582 406,249.916 C406,281.249 403.728,331.249 371.061,454.582 C338.394,577.916 367.728,651.249 379.061,671.916 C390.394,692.582 351.061,701.442 333.728,702.108 C321.956,702.624 310.187,703.544 298.394,703.266 L289.554,703.275 C268.946,702.424 277.776,702.837 263.061,702.108 C245.728,701.442 206.394,692.582 217.728,671.916 C229.061,651.249 258.395,577.916 225.728,454.582 C193.061,331.249 190.789,281.249 190.789,249.916 C190.789,218.582 201.573,139.822 203.061,139.916 C234.796,141.719 266.592,143.501 298.394,143.1 C330.197,143.501 361.993,141.719 393.728,139.916 z M377.447,185.537 C371.927,186.35 372.075,186.33 360.972,187.43 C340.181,189.49 319.284,190.415 298.394,190.424 C271.982,190.243 245.54,189.08 219.342,185.537 C217.959,202.521 216.595,219.533 216.455,236.582 C216.456,267.916 218.186,317.916 243.061,441.249 C267.935,564.582 245.599,637.916 236.969,658.582 C228.339,679.249 258.29,688.108 271.489,688.775 C282.694,689.504 275.97,689.091 291.662,689.941 L298.394,689.933 C307.374,690.21 316.336,689.29 325.3,688.775 C338.499,688.108 368.45,679.249 359.82,658.582 C351.19,637.916 328.853,564.582 353.728,441.249 C378.603,317.916 380.333,267.916 380.333,236.582 C380.202,219.533 378.828,202.52 377.447,185.537 z" fill="#FFFFFF"/>
    <path d="M296.992,88.683 C302.947,88.701 308.383,90.408 313.388,93.628 L316.378,94.141 C318.76,92.785 321.54,92.304 324.179,91.721 C325.934,91.447 327.72,91.452 329.49,91.317 C336.037,91.835 333.239,91.402 337.924,92.315 C345.547,94.228 352.921,98.186 357.585,104.838 C358.429,106.042 359.027,107.409 359.748,108.695 C369.867,113.903 379.965,119.665 388.573,127.289 C389.044,127.706 393.652,131.216 392.256,132.496 C372.45,135.395 349.792,135.395 298.114,135.395 C292.612,135.395 294.954,135.395 291.087,135.395 L291.087,135.162 L290.349,135.162 C288.444,135.422 288.59,135.445 285.746,135.362 C285.277,135.348 284.817,135.227 284.353,135.16 C257.821,134.861 231.128,135.85 204.756,132.265 C202.938,130.806 211.139,124.779 211.849,124.223 C217.418,119.862 223.379,116.022 229.532,112.588 C229.882,111.692 230.083,110.719 230.582,109.9 C236.24,100.611 250.866,98.677 260.474,98.424 L261.788,98.454 C266.522,96.877 271.344,95.505 276.259,94.661 C279.188,92.726 282.448,91.467 285.714,90.278 C290.545,89.011 287.652,89.649 294.455,88.685 L296.992,88.683 z" fill="#FFFFFF"/>
  </g>
</svg>
