<?xml version="1.0" encoding="UTF-8"?>
<!DOCTYPE svg PUBLIC "-//W3C//DTD SVG 1.1//EN" "http://www.w3.org/Graphics/SVG/1.1/DTD/svg11.dtd">
<svg version="1.1" xmlns="http://www.w3.org/2000/svg" xmlns:xlink="http://www.w3.org/1999/xlink" x="0" y="0" width="198.667" height="290.343" viewBox="0, 0, 198.667, 290.343">
  <g id="Layer_1" transform="translate(-324.589, -204.344)">
    <path d="M523.255,204.344 L523.255,234.342 L523.255,234.344 L523.255,431.677 L523.255,431.679 L523.255,461.677 L411.866,461.677 L411.866,494.687 L384.866,467.687 L357.866,494.687 L357.866,461.677 L354.589,461.677 C338.02,461.677 324.589,448.246 324.589,431.677 L324.589,234.344 C324.589,217.775 338.02,204.344 354.589,204.344 L523.255,204.344 z M514.533,408.308 L354.348,408.308 L354.348,408.325 L354.042,408.308 C342.899,408.309 333.866,418.158 333.866,430.309 C333.866,442.459 342.899,452.309 354.042,452.309 L354.348,452.292 L354.348,452.308 L357.866,452.308 L357.866,431.642 L411.866,431.642 L411.866,452.308 L514.533,452.308 L514.533,408.308 z" fill="#FFFFFF"/>
  </g>
</svg>
