<?xml version="1.0" encoding="UTF-8"?>
<!DOCTYPE svg PUBLIC "-//W3C//DTD SVG 1.1//EN" "http://www.w3.org/Graphics/SVG/1.1/DTD/svg11.dtd">
<svg version="1.1" xmlns="http://www.w3.org/2000/svg" xmlns:xlink="http://www.w3.org/1999/xlink" x="0" y="0" width="53.385" height="51.028" viewBox="0, 0, 53.385, 51.028">
  <g id="Layer_1" transform="translate(-224.73, -14.583)">
    <path d="M236.851,65.611 L236.851,31.181 L225.407,31.181 L225.407,65.611 L236.851,65.611 z M231.129,26.48 C235.119,26.48 237.603,23.836 237.603,20.532 C237.529,17.153 235.119,14.583 231.204,14.583 C227.29,14.583 224.73,17.153 224.73,20.532 C224.73,23.836 227.214,26.48 231.054,26.48 L231.128,26.48 z" fill="#FFFFFF" id="path28"/>
    <path d="M243.183,65.611 L254.627,65.611 L254.627,46.384 C254.627,45.355 254.701,44.327 255.003,43.591 C255.831,41.535 257.714,39.406 260.875,39.406 C265.016,39.406 266.673,42.563 266.673,47.192 L266.673,65.611 L278.116,65.611 L278.116,45.869 C278.116,35.294 272.47,30.373 264.941,30.373 C258.767,30.373 256.057,33.824 254.551,36.174 L254.627,36.174 L254.627,31.181 L243.183,31.181 C243.333,34.411 243.183,65.611 243.183,65.611 z" fill="#FFFFFF" id="path30"/>
  </g>
</svg>
