<?xml version="1.0" encoding="UTF-8"?>
<!DOCTYPE svg PUBLIC "-//W3C//DTD SVG 1.1//EN" "http://www.w3.org/Graphics/SVG/1.1/DTD/svg11.dtd">
<svg version="1.1" xmlns="http://www.w3.org/2000/svg" xmlns:xlink="http://www.w3.org/1999/xlink" x="0" y="0" width="396.329" height="253.727" viewBox="0, 0, 396.329, 253.727">
  <g id="Layer_1" transform="translate(-123.855, -494.949)">
    <path d="M260.546,532.093 C262.553,532.093 264.18,533.72 264.18,535.727 L264.18,546.533 C273.343,548.404 282.306,552.01 290.071,557.254 L297.709,549.615 C298.801,548.572 299.567,548.617 300.974,548.617 C302.507,549.242 301.915,548.852 302.85,549.615 L321.672,568.438 C323.091,569.857 323.091,572.158 321.672,573.578 L314.017,581.232 C319.228,589.03 322.816,597.933 324.691,607.107 L335.56,607.107 C337.567,607.107 339.195,608.734 339.195,610.741 L339.195,637.36 C339.195,639.367 337.567,640.995 335.56,640.995 L324.659,640.994 C322.785,650.129 319.184,659.065 313.954,666.806 L321.672,674.524 C323.091,675.943 323.091,678.244 321.672,679.664 L302.85,698.486 C301.43,699.905 299.129,699.905 297.71,698.486 L289.977,690.753 C282.201,695.942 273.327,699.541 264.18,701.411 L264.18,712.374 C264.18,714.382 262.553,716.009 260.546,716.009 L233.927,716.009 C231.92,716.009 230.293,714.382 230.293,712.374 L230.293,701.411 C221.174,699.54 212.228,695.976 204.496,690.753 L196.763,698.486 C195.344,699.905 193.043,699.905 191.623,698.486 L172.801,679.664 C171.382,678.244 171.382,675.943 172.801,674.524 L180.518,666.806 C175.318,659.029 171.686,650.152 169.814,640.994 L158.913,640.994 C156.906,640.995 155.278,639.367 155.278,637.36 L155.278,610.741 C155.278,608.734 156.906,607.107 158.913,607.107 L169.782,607.107 C171.649,597.959 175.217,588.986 180.455,581.232 L172.801,573.578 C171.382,572.158 171.382,569.857 172.801,568.438 L191.623,549.615 C192.715,548.572 193.481,548.617 194.888,548.617 C196.42,549.242 195.829,548.852 196.763,549.615 L204.402,557.254 C212.202,552.032 221.108,548.411 230.293,546.533 L230.293,535.727 C230.293,533.72 231.92,532.093 233.927,532.093 L260.546,532.093 z M247.236,581.756 C223.878,581.756 204.942,600.692 204.942,624.051 C204.942,647.409 223.878,666.345 247.236,666.345 C270.595,666.345 289.531,647.409 289.531,624.051 C289.531,600.692 270.595,581.756 247.236,581.756 z" fill="#ffffff"/>
    <path d="M260.131,506.449 L420.558,524.274 L420.558,524.794 C471.942,529.524 508.398,571.479 509.684,622.313 C509.524,672.87 470.501,714.768 420.558,719.832 L260.131,738.176 L260.131,737.726 C255.203,738.226 258.169,738.001 251.219,738.176 C187.229,738.176 135.355,686.302 135.355,622.313 C135.355,558.323 187.229,506.449 251.219,506.449 C258.169,506.625 255.203,506.399 260.131,506.899 L260.131,506.449 z" fill-opacity="0" stroke="#ffffff" stroke-width="20" stroke-dasharray="20,20" stroke-miterlimit="1"/>
    <path d="M456.708,557.108 C458.25,557.769 458.964,559.555 458.303,561.096 L454.744,569.395 C461.165,573.849 466.861,579.57 471.097,586.154 L479.479,582.803 C480.661,582.361 481.234,582.648 482.315,583.112 C483.286,584.096 482.96,583.602 483.427,584.496 L491.684,605.149 C492.307,606.706 491.549,608.474 489.991,609.096 L481.592,612.454 C483.026,620.159 482.85,628.177 481.269,635.841 L489.616,639.42 C491.158,640.081 491.872,641.866 491.211,643.408 L482.445,663.85 C481.784,665.392 479.999,666.106 478.457,665.445 L470.085,661.855 C465.638,668.253 459.93,673.93 453.365,678.153 L456.75,686.622 C457.373,688.179 456.615,689.947 455.058,690.569 L434.404,698.826 C432.847,699.449 431.08,698.691 430.457,697.134 L427.065,688.649 C419.384,690.073 411.384,689.915 403.744,688.339 L400.133,696.759 C399.473,698.3 397.687,699.014 396.145,698.353 L375.703,689.588 C374.161,688.927 373.447,687.141 374.108,685.6 L377.718,677.18 C371.331,672.74 365.635,667.057 361.416,660.5 L352.931,663.893 C351.374,664.515 349.607,663.758 348.984,662.2 L340.727,641.547 C340.104,639.989 340.862,638.222 342.42,637.599 L350.888,634.214 C349.455,626.528 349.589,618.515 351.166,610.865 L342.794,607.276 C341.253,606.615 340.539,604.829 341.2,603.288 L349.965,582.845 C350.627,581.304 352.412,580.59 353.954,581.251 L362.301,584.83 C366.747,578.419 372.442,572.703 379.018,568.473 L375.661,560.074 C375.038,558.517 375.796,556.749 377.353,556.127 L398.006,547.869 C399.189,547.427 399.762,547.715 400.842,548.178 C401.813,549.162 401.488,548.668 401.954,549.562 L405.305,557.944 C413.015,556.502 421.047,556.654 428.719,558.236 L432.277,549.937 C432.938,548.395 434.724,547.682 436.265,548.343 L456.708,557.108 z M430.133,590.866 C412.194,583.174 391.416,591.481 383.724,609.421 C376.032,627.36 384.339,648.138 402.278,655.829 C420.217,663.521 440.995,655.214 448.687,637.275 C456.379,619.336 448.072,598.558 430.133,590.866 z" fill="#ffffff"/>
  </g>
</svg>
