<?xml version="1.0" encoding="UTF-8"?>
<!DOCTYPE svg PUBLIC "-//W3C//DTD SVG 1.1//EN" "http://www.w3.org/Graphics/SVG/1.1/DTD/svg11.dtd">
<svg version="1.1" xmlns="http://www.w3.org/2000/svg" xmlns:xlink="http://www.w3.org/1999/xlink" x="0" y="0" width="227.368" height="268.591" viewBox="0, 0, 227.368, 268.591">
  <g id="Layer_1" transform="translate(-150.912, -323.9)">
    <path d="M264.596,365.123 C327.383,365.123 378.281,416.021 378.281,478.807 C378.281,541.593 327.383,592.491 264.596,592.491 C201.81,592.491 150.912,541.593 150.912,478.807 C150.912,416.021 201.81,365.123 264.596,365.123 z M264.596,372.842 C206.074,372.842 158.632,420.284 158.632,478.807 C158.632,537.33 206.074,584.772 264.596,584.772 C323.119,584.772 370.561,537.33 370.561,478.807 C370.561,420.284 323.119,372.842 264.596,372.842 z" fill="#FFFFFF"/>
    <path d="M264.597,495.649 C255.295,495.649 247.754,488.109 247.754,478.807 C247.754,469.505 255.295,461.965 264.597,461.965 C273.898,461.965 281.439,469.505 281.439,478.807 C281.439,488.109 273.898,495.649 264.597,495.649 z" fill="#FFFFFF"/>
    <path d="M327.129,415.124 L328.968,416.962 L265.616,486.597 L256.684,477.665 L327.129,415.124 z" fill="#FFFFFF"/>
    <path d="M345.621,371.702 L372.39,398.471 L355.737,415.124 L328.968,388.355 L345.621,371.702 z" fill="#FFFFFF"/>
    <path d="M237.385,323.9 L291.808,323.9 L291.808,360.9 L237.385,360.9 L237.385,323.9 z" fill="#FFFFFF"/>
    <path d="M249.168,332.4 L280.025,332.4 L280.025,367.9 L249.168,367.9 L249.168,332.4 z" fill="#FFFFFF"/>
    <path d="M170.489,484.392 L170.489,473.392 L192.919,473.392 L192.919,484.392 L170.489,484.392 z" fill="#FFFFFF"/>
    <path d="M336.274,484.392 L336.274,473.392 L358.704,473.392 L358.704,484.392 L336.274,484.392 z" fill="#FFFFFF"/>
    <path d="M259.097,384.785 L270.097,384.785 L270.097,407.215 L259.097,407.215 L259.097,384.785 z" fill="#FFFFFF"/>
    <path d="M259.097,550.57 L270.097,550.57 L270.097,573 L259.097,573 L259.097,550.57 z" fill="#FFFFFF"/>
  </g>
</svg>
